# xmcd CD database file
#
# Track frame offsets:
#	150
#	12225
#	23700
#	36225
#	47425
#	58912
#	72700
#	82900
#	95650
#	108575
#
# Disc length: 1600 seconds
#
# Revision: 0
# Processed by: cddbd v1.5.1PL0 Copyright (c) Steve Scherf et al.
# Submitted via: CDex 1.51
#
DISCID=82063e0a
DTITLE=Ray Charles - Ray Charles
DYEAR=1900
DGENRE=Blues
TTITLE0=Honey Honey
TTITLE1=Ray Charles Blues
TTITLE2=You always miss the water,when the well runs dry
TTITLE3=She`s on the ball
TTITLE4=How long
TTITLE5=Someday
TTITLE6=Ain`t that fine 
TTITLE7=Don`t pull all your dreams in one basket
TTITLE8=Baby, won`t you please come
TTITLE9=Tell me baby
EXTD=
EXTT0=
EXTT1=
EXTT2=
EXTT3=
EXTT4=
EXTT5=
EXTT6=
EXTT7=
EXTT8=
EXTT9=
PLAYORDER=
